<?xml version="1.0" standalone="no"?>
<!DOCTYPE svg PUBLIC "-//W3C//DTD SVG 20010904//EN"
 "http://www.w3.org/TR/2001/REC-SVG-20010904/DTD/svg10.dtd">
<svg version="1.0" xmlns="http://www.w3.org/2000/svg"
 width="1080.000000pt" height="1080.000000pt" viewBox="0 0 1080.000000 1080.000000"
 preserveAspectRatio="xMidYMid meet">
<metadata>
Created by potrace 1.14, written by Peter Selinger 2001-2017
</metadata>
<g transform="translate(0.000000,1080.000000) scale(0.100000,-0.100000)"
fill="#000000" stroke="none">
<path d="M0 5400 l0 -5400 5400 0 5400 0 0 5400 0 5400 -5400 0 -5400 0 0
-5400z m6429 3810 c106 -27 178 -59 256 -115 338 -241 339 -696 3 -1022 -211
-204 -481 -257 -715 -140 -171 87 -283 222 -345 417 -19 62 -23 96 -23 195 1
139 15 200 77 315 95 178 237 289 443 346 102 29 199 30 304 4z m1781 -1368
c110 -47 197 -149 222 -260 17 -78 -1 -178 -49 -272 -22 -41 -164 -259 -317
-485 -540 -795 -522 -771 -634 -823 -72 -34 -189 -38 -265 -8 -27 10 -238 130
-470 266 -315 185 -425 245 -433 237 -6 -7 -137 -228 -291 -492 -449 -770
-573 -985 -573 -998 0 -7 33 -45 73 -85 l72 -72 1523 -2 1523 -3 -266 -392
c-146 -216 -265 -397 -265 -402 0 -6 119 -187 265 -402 146 -215 265 -393 265
-395 0 -2 -485 -4 -1079 -4 l-1079 0 -373 -657 c-415 -728 -430 -751 -556
-814 -65 -33 -73 -34 -178 -34 -101 0 -115 3 -170 30 -76 37 -163 123 -198
197 -47 99 -55 257 -16 330 7 13 133 229 280 481 148 252 269 460 269 463 0 2
-269 4 -597 4 l-598 -1 -75 -102 c-149 -202 -239 -307 -658 -766 -605 -662
-641 -701 -697 -736 -126 -80 -273 -91 -411 -30 -71 32 -149 112 -188 195 -29
61 -31 72 -31 180 0 104 3 120 26 170 21 43 133 168 510 570 l482 515 -522 5
-522 5 267 393 c167 247 264 400 261 410 -2 9 -122 190 -265 402 l-261 385
1004 3 c553 1 1005 5 1005 7 0 3 -9 24 -21 46 -81 159 -77 395 8 579 20 41
174 389 343 773 274 620 305 697 286 697 -26 0 -488 -68 -491 -72 -1 -2 -100
-165 -221 -363 -239 -392 -289 -457 -395 -509 -146 -71 -291 -47 -400 65 -94
96 -115 236 -56 364 15 32 150 275 299 540 308 544 328 570 472 640 75 36 85
38 758 136 625 92 691 100 778 94 198 -13 502 -96 650 -177 247 -135 447 -291
750 -582 219 -211 231 -222 240 -206 15 27 522 764 575 835 55 74 126 123 211
144 54 14 151 6 204 -17z"/>
<path d="M5030 4664 c-201 -43 -382 -203 -460 -406 -132 -341 -42 -686 212
-812 90 -46 163 -60 273 -53 380 22 649 359 622 777 -23 361 -296 570 -647
494z m272 -157 c143 -66 220 -233 205 -444 -20 -281 -164 -478 -385 -524 -165
-34 -324 37 -395 176 -28 56 -47 152 -47 239 0 287 140 509 361 571 78 22 193
14 261 -18z"/>
<path d="M3136 4633 c-7 -44 -71 -562 -116 -938 -17 -143 -33 -268 -36 -277
-5 -16 3 -18 69 -18 l74 0 6 38 c4 20 20 154 37 297 39 334 80 659 84 662 1 1
69 -172 151 -385 81 -213 155 -395 163 -404 10 -12 29 -18 57 -18 27 0 47 6
58 18 8 9 61 91 118 182 56 91 162 263 237 383 74 120 137 216 139 213 3 -3
-4 -78 -16 -168 -12 -90 -37 -296 -56 -458 -19 -162 -37 -310 -40 -328 l-6
-33 73 3 73 3 12 100 c57 453 143 1151 143 1157 0 13 -145 9 -163 -4 -13 -11
-382 -593 -517 -816 -35 -57 -39 -61 -45 -40 -23 75 -320 836 -333 851 -12 13
-31 17 -88 17 l-72 0 -6 -37z"/>
<path d="M5800 4666 c0 -6 308 -1225 316 -1248 4 -15 17 -18 79 -18 l73 0 311
626 c171 344 311 630 311 635 0 5 -33 9 -73 9 -64 0 -76 -3 -94 -22 -11 -13
-87 -162 -168 -333 -82 -170 -177 -371 -213 -445 -36 -74 -77 -164 -93 -200
-16 -38 -30 -59 -33 -50 -2 8 -25 105 -50 215 -129 569 -188 811 -204 823 -15
11 -162 18 -162 8z"/>
<path d="M7060 4665 c0 -2 -23 -186 -50 -407 -91 -730 -100 -807 -100 -833 l0
-25 359 0 358 0 7 46 c12 93 41 84 -269 84 -257 0 -275 1 -275 18 0 10 11 105
25 212 14 107 25 198 25 203 0 4 101 7 224 7 l224 0 9 63 8 62 -222 3 c-123 1
-223 6 -223 11 0 14 39 352 46 394 l6 37 279 0 c265 0 279 1 279 19 0 10 3 39
6 65 l7 46 -362 0 c-198 0 -361 -2 -361 -5z"/>
</g>
</svg>
